<svg version="1.1" id="Layer_1" xmlns="http://www.w3.org/2000/svg" xmlns:xlink="http://www.w3.org/1999/xlink" x="0px" y="0px"
	 width="100%" viewBox="0 0 512 512" enable-background="new 0 0 512 512" xml:space="preserve">
<path fill="#E94F4F" opacity="1.000000" stroke="none" 
	d="
M1.000003,324.000000 
	C1.000000,319.643097 1.000000,315.286194 1.468393,310.447205 
	C131.299713,309.975220 260.662659,309.984375 390.025574,310.001923 
	C392.687500,310.002289 395.349396,310.100220 397.962189,310.556396 
	C397.628113,312.599579 397.239746,314.228607 397.073273,315.880005 
	C392.735657,358.905884 375.069427,395.839081 345.389923,426.955383 
	C326.748047,446.499786 304.330780,460.784851 279.212250,470.676270 
	C266.770416,475.575684 254.073288,478.484528 240.339462,478.213562 
	C207.533707,477.566223 174.705902,478.035309 141.492157,478.030579 
	C133.862930,475.668243 126.508949,473.641663 119.416977,470.929901 
	C99.409119,463.279419 80.985374,452.647949 65.093201,438.343079 
	C50.921841,425.587219 38.001793,411.619080 28.190636,394.896912 
	C16.532270,375.026398 7.795887,354.228241 3.893795,331.455475 
	C3.452600,328.880615 1.989331,326.480927 1.000003,324.000000 
M89.502174,400.003937 
	C80.132744,391.139648 71.999779,381.295746 65.525414,370.098358 
	C59.625221,359.893951 59.639091,360.058502 49.154167,365.326935 
	C45.216202,367.305695 44.761211,369.220123 46.864090,373.093964 
	C59.859028,397.032654 77.736870,416.381287 100.631927,431.077606 
	C113.464493,439.314880 110.236633,437.756195 117.055733,426.939606 
	C119.418144,423.192322 118.180489,421.364899 114.764252,419.002869 
	C106.296089,413.148010 98.231522,406.709412 89.502174,400.003937 
M31.830500,330.938019 
	C32.943378,335.915100 33.810699,340.969574 35.338230,345.815979 
	C35.730247,347.059723 38.483612,348.673767 39.672874,348.351105 
	C43.921307,347.198486 48.617577,346.035156 51.760620,343.290985 
	C53.009525,342.200562 50.657242,336.967133 49.916180,333.626160 
	C49.665058,332.494049 49.654591,331.074127 48.955406,330.328186 
	C47.765850,329.059082 45.987774,327.215637 44.686642,327.384399 
	C40.477108,327.930298 36.372025,329.281586 31.830500,330.938019 
z"/>
<path fill="#000000" opacity="1.000000" stroke="none" 
	d="
M0.999998,230.000000 
	C1.000000,153.716995 1.000000,77.433975 1.000000,1.000000 
	C144.021973,1.000000 287.044006,1.000000 430.729828,1.407686 
	C430.045654,2.210088 428.706757,2.912040 427.348328,2.952095 
	C413.423309,3.362690 399.495239,3.670407 385.567810,3.997885 
	C371.140900,4.337106 356.713531,4.657802 342.286774,5.002599 
	C328.858948,5.323521 315.431824,5.676246 302.003967,5.995305 
	C287.410645,6.342056 272.816528,6.656221 258.223206,7.002994 
	C244.795334,7.322073 231.368454,7.684286 217.940369,7.993423 
	C202.514328,8.348556 187.088562,8.741569 171.660492,8.972826 
	C161.895142,9.119203 152.125824,9.000162 142.161209,9.000162 
	C142.161209,18.388887 142.161209,27.182447 142.095886,36.441959 
	C142.030548,45.460934 142.030548,54.013958 142.030548,63.242970 
	C155.377747,63.553196 168.186630,63.850914 180.996582,64.549110 
	C176.006943,81.437241 175.106857,98.248215 179.561111,114.796593 
	C183.657562,130.015610 188.293304,145.004196 184.927887,160.916916 
	C182.928619,170.370041 180.205276,179.670013 177.498795,188.883728 
	C162.941254,179.678726 147.730545,175.046173 130.649246,177.950684 
	C118.128815,180.079697 107.250572,184.992783 98.586914,194.944794 
	C82.918831,188.098679 67.322586,184.459198 50.195889,186.792297 
	C29.846737,189.564392 8.106099,205.350815 2.915925,228.716644 
	C2.795345,229.259491 1.661315,229.577240 0.999998,230.000000 
z"/>
<path fill="#E04343" opacity="1.000000" stroke="none" 
	d="
M141.887009,478.053558 
	C174.705902,478.035309 207.533707,477.566223 240.339462,478.213562 
	C254.073288,478.484528 266.770416,475.575684 279.212250,470.676270 
	C304.330780,460.784851 326.748047,446.499786 345.389923,426.955383 
	C375.069427,395.839081 392.735657,358.905884 397.073273,315.880005 
	C397.239746,314.228607 397.628113,312.599579 398.428101,310.506439 
	C436.962067,310.035156 474.981049,310.017578 513.000000,310.000000 
	C513.000000,314.356903 513.000000,318.713806 512.612061,323.344360 
	C511.487305,326.388855 510.538422,329.122681 510.046844,331.936432 
	C505.772675,356.400269 496.193024,378.716675 482.947449,399.584503 
	C474.306885,413.197327 463.719116,425.272461 451.549652,435.624146 
	C441.030029,444.572388 429.815155,453.120514 417.746094,459.721985 
	C403.414642,467.560852 387.840912,473.128540 372.000000,480.031494 
	C372.000000,490.035004 372.000000,501.517487 372.000000,513.000000 
	C295.645782,513.000000 219.291550,513.000000 142.468948,512.531372 
	C141.962723,500.726318 141.924866,489.389923 141.887009,478.053558 
z"/>
<path fill="#000000" opacity="1.000000" stroke="none" 
	d="
M513.000000,72.000000 
	C513.000000,124.687561 513.000000,177.375122 512.645508,230.614594 
	C507.341827,227.093689 502.335266,223.088318 497.454041,218.935684 
	C481.398987,205.276932 465.342621,191.618744 449.414612,177.812759 
	C447.124847,175.828049 445.555389,175.630768 443.628815,177.874878 
	C442.446960,179.251556 441.195190,180.568039 440.005127,181.937866 
	C432.993408,190.008682 425.990601,198.087234 418.680939,206.002899 
	C411.104706,201.181839 404.182281,195.811890 396.484467,192.013306 
	C382.082550,184.906570 366.537781,184.280960 351.120850,187.631943 
	C343.232452,189.346558 335.795135,193.136475 328.087769,195.558807 
	C329.468231,188.496872 330.523499,181.749191 332.437317,175.254501 
	C337.528809,157.975983 337.970520,140.390533 333.343842,123.313538 
	C329.606018,109.517212 326.560852,95.960976 328.085236,81.710899 
	C328.578125,77.103271 330.070038,72.602516 331.566589,68.031799 
	C342.949615,68.339394 353.869965,68.707184 364.792572,68.987091 
	C379.373352,69.360741 393.956055,69.661041 408.537689,70.002312 
	C422.454102,70.328011 436.369141,70.725975 450.286804,70.984283 
	C471.190277,71.372269 492.095520,71.666122 513.000000,72.000000 
z"/>
<path fill="#000000" opacity="1.000000" stroke="none" 
	d="
M372.468658,513.000000 
	C372.000000,501.517487 372.000000,490.035004 372.000000,480.031494 
	C387.840912,473.128540 403.414642,467.560852 417.746094,459.721985 
	C429.815155,453.120514 441.030029,444.572388 451.549652,435.624146 
	C463.719116,425.272461 474.306885,413.197327 482.947449,399.584503 
	C496.193024,378.716675 505.772675,356.400269 510.046844,331.936432 
	C510.538422,329.122681 511.487305,326.388855 512.612061,323.808990 
	C513.000000,386.916382 513.000000,449.832764 513.000000,513.000000 
	C466.312744,513.000000 419.625031,513.000000 372.468658,513.000000 
z"/>
<path fill="#E94F4F" opacity="1.000000" stroke="none" 
	d="
M142.161209,35.976006 
	C142.161209,27.182447 142.161209,18.388887 142.161209,9.000162 
	C152.125824,9.000162 161.895142,9.119203 171.660492,8.972826 
	C187.088562,8.741569 202.514328,8.348556 217.940369,7.993423 
	C231.368454,7.684286 244.795334,7.322073 258.223206,7.002994 
	C272.816528,6.656221 287.410645,6.342056 302.003967,5.995305 
	C315.431824,5.676246 328.858948,5.323521 342.286774,5.002599 
	C356.713531,4.657802 371.140900,4.337106 385.567810,3.997885 
	C399.495239,3.670407 413.423309,3.362690 427.348328,2.952095 
	C428.706757,2.912040 430.045654,2.210088 431.196808,1.407686 
	C458.230743,1.000000 485.461456,1.000000 513.000000,1.000000 
	C513.000000,12.352373 513.000000,23.707529 512.531372,35.533356 
	C453.415344,36.008972 394.768036,36.013912 335.908203,35.695717 
	C329.711517,33.988937 323.730438,32.677006 317.491547,36.152542 
	C311.682556,36.192070 306.338348,36.220314 300.760956,35.930489 
	C294.611603,33.782768 288.715485,32.756275 282.464844,36.083290 
	C276.373840,36.067535 270.745209,36.020203 264.928711,35.627480 
	C258.728302,34.011391 252.689270,32.341476 246.613556,36.442905 
	C240.812424,36.310429 235.432816,36.194527 229.962128,35.795761 
	C229.246399,35.168774 228.621750,34.824650 227.545166,34.407356 
	C222.042053,34.893887 216.990875,35.453579 211.474823,36.012260 
	C188.060364,35.999504 165.110794,35.987755 142.161209,35.976006 
z"/>
<path fill="#000000" opacity="1.000000" stroke="none" 
	d="
M141.492157,478.030579 
	C141.924866,489.389923 141.962723,500.726318 142.000290,512.531372 
	C95.062378,513.000000 48.124760,513.000000 1.000000,513.000000 
	C1.000000,450.312561 1.000000,387.624939 1.000003,324.468658 
	C1.989331,326.480927 3.452600,328.880615 3.893795,331.455475 
	C7.795887,354.228241 16.532270,375.026398 28.190636,394.896912 
	C38.001793,411.619080 50.921841,425.587219 65.093201,438.343079 
	C80.985374,452.647949 99.409119,463.279419 119.416977,470.929901 
	C126.508949,473.641663 133.862930,475.668243 141.492157,478.030579 
z"/>
<path fill="#E94F4F" opacity="1.000000" stroke="none" 
	d="
M1.000000,292.000000 
	C1.000000,282.979095 1.000000,273.958221 1.367720,264.589172 
	C3.243552,264.786041 4.748178,265.790710 6.260334,265.802185 
	C16.750340,265.881744 27.241907,265.754822 38.212624,265.755005 
	C64.769493,265.783691 90.846710,265.751526 117.393982,265.778595 
	C127.546593,265.793549 137.229141,265.749268 147.379791,265.764587 
	C160.626755,265.800323 173.405640,265.776489 186.638641,265.806824 
	C233.796280,265.871124 280.499786,265.881226 327.633972,265.906799 
	C331.043701,265.881836 334.022766,265.841339 337.469299,265.832520 
	C348.662659,265.874176 359.388458,265.884155 370.575745,265.889252 
	C380.026123,265.936249 389.015076,265.988159 398.003418,266.506012 
	C398.003693,275.309937 398.004517,283.647858 397.538666,292.037781 
	C395.740448,292.113098 394.408936,292.156830 393.077423,292.156860 
	C264.047882,292.159973 135.018356,292.160370 5.988813,292.153137 
	C4.325873,292.153046 2.662937,292.053253 1.000000,292.000000 
z"/>
<path fill="#FFB332" opacity="1.000000" stroke="none" 
	d="
M1.000000,292.467957 
	C2.662937,292.053253 4.325873,292.153046 5.988813,292.153137 
	C135.018356,292.160370 264.047882,292.159973 393.077423,292.156860 
	C394.408936,292.156830 395.740448,292.113098 398.004150,292.093323 
	C436.957581,292.064636 474.978790,292.032318 513.000000,292.000000 
	C513.000000,297.688049 513.000000,303.376068 513.000000,309.532043 
	C474.981049,310.017578 436.962067,310.035156 398.477234,310.102692 
	C395.349396,310.100220 392.687500,310.002289 390.025574,310.001923 
	C260.662659,309.984375 131.299713,309.975220 1.468393,309.982574 
	C1.000000,304.311951 1.000000,298.623932 1.000000,292.467957 
z"/>
<path fill="#3E4D63" opacity="1.000000" stroke="none" 
	d="
M398.003998,266.040039 
	C389.015076,265.988159 380.026123,265.936249 370.618042,265.555847 
	C371.137268,263.891327 371.986572,262.480988 373.028870,261.231659 
	C378.943359,254.142563 384.903961,247.091965 391.111938,239.808716 
	C394.889038,235.388336 398.403107,231.187500 402.197601,226.803131 
	C407.980286,219.800797 413.482544,212.981995 418.984802,206.163177 
	C425.990601,198.087234 432.993408,190.008682 440.005127,181.937866 
	C441.195190,180.568039 442.446960,179.251556 443.628815,177.874878 
	C445.555389,175.630768 447.124847,175.828049 449.414612,177.812759 
	C465.342621,191.618744 481.398987,205.276932 497.454041,218.935684 
	C502.335266,223.088318 507.341827,227.093689 512.645508,231.083252 
	C513.000000,232.388885 513.000000,233.777786 512.650696,235.499451 
	C511.630829,236.304779 510.824188,236.661835 510.310211,237.267303 
	C502.526367,246.436844 494.780914,255.638947 486.624817,264.960663 
	C484.087769,265.301544 481.953186,265.690674 479.816895,265.700195 
	C466.842957,265.757996 453.868500,265.689056 440.894501,265.740173 
	C426.597504,265.796478 412.300812,265.936493 398.003998,266.040039 
z"/>
<path fill="#E0DFDD" opacity="1.000000" stroke="none" 
	d="
M146.911697,265.704987 
	C137.229141,265.749268 127.546593,265.793549 117.405869,265.354248 
	C117.047096,240.402924 99.674217,222.588699 76.099251,222.984497 
	C53.676830,223.360962 36.984421,241.943085 37.732975,265.694183 
	C27.241907,265.754822 16.750340,265.881744 6.260334,265.802185 
	C4.748178,265.790710 3.243552,264.786041 1.367720,264.120514 
	C1.000000,252.979111 1.000000,241.958206 0.999998,230.468658 
	C1.661315,229.577240 2.795345,229.259491 2.915925,228.716644 
	C8.106099,205.350815 29.846737,189.564392 50.195889,186.792297 
	C67.322586,184.459198 82.918831,188.098679 98.719971,195.261353 
	C102.296379,197.700317 105.344109,199.896255 108.432182,202.033905 
	C118.587143,209.063446 126.539520,218.250778 133.963684,228.347076 
	C140.827545,240.155273 145.609741,252.322678 146.911697,265.704987 
z"/>
<path fill="#CF3A3A" opacity="1.000000" stroke="none" 
	d="
M336.120667,36.018852 
	C394.768036,36.013912 453.415344,36.008972 512.531372,36.002014 
	C513.000000,47.687561 513.000000,59.375122 513.000000,71.531342 
	C492.095520,71.666122 471.190277,71.372269 450.286804,70.984283 
	C436.369141,70.725975 422.454102,70.328011 408.537689,70.002312 
	C393.956055,69.661041 379.373352,69.360741 364.792572,68.987091 
	C353.869965,68.707184 342.949615,68.339394 331.498535,67.629875 
	C332.686096,56.838959 334.403381,46.428905 336.120667,36.018852 
z"/>
<path fill="#E04343" opacity="1.000000" stroke="none" 
	d="
M398.003418,266.505981 
	C412.300812,265.936493 426.597504,265.796478 440.894501,265.740173 
	C453.868500,265.689056 466.842957,265.757996 479.816895,265.700195 
	C481.953186,265.690674 484.087769,265.301544 487.089600,265.023682 
	C496.304016,264.973022 504.652008,264.986511 513.000000,265.000000 
	C513.000000,273.687561 513.000000,282.375122 513.000000,291.531342 
	C474.978790,292.032318 436.957581,292.064636 398.470886,292.041382 
	C398.004517,283.647858 398.003693,275.309937 398.003418,266.505981 
z"/>
<path fill="#000000" opacity="1.000000" stroke="none" 
	d="
M513.000000,264.531372 
	C504.652008,264.986511 496.304016,264.973022 487.491272,264.896484 
	C494.780914,255.638947 502.526367,246.436844 510.310211,237.267303 
	C510.824188,236.661835 511.630829,236.304779 512.650696,235.916107 
	C513.000000,245.354233 513.000000,254.708450 513.000000,264.531372 
z"/>
<path fill="#F26666" opacity="1.000000" stroke="none" 
	d="
M89.753494,400.254639 
	C98.231522,406.709412 106.296089,413.148010 114.764252,419.002869 
	C118.180489,421.364899 119.418144,423.192322 117.055733,426.939606 
	C110.236633,437.756195 113.464493,439.314880 100.631927,431.077606 
	C77.736870,416.381287 59.859028,397.032654 46.864090,373.093964 
	C44.761211,369.220123 45.216202,367.305695 49.154167,365.326935 
	C59.639091,360.058502 59.625221,359.893951 65.525414,370.098358 
	C71.999779,381.295746 80.132744,391.139648 89.753494,400.254639 
z"/>
<path fill="#F26666" opacity="1.000000" stroke="none" 
	d="
M32.028599,330.630310 
	C36.372025,329.281586 40.477108,327.930298 44.686642,327.384399 
	C45.987774,327.215637 47.765850,329.059082 48.955406,330.328186 
	C49.654591,331.074127 49.665058,332.494049 49.916180,333.626160 
	C50.657242,336.967133 53.009525,342.200562 51.760620,343.290985 
	C48.617577,346.035156 43.921307,347.198486 39.672874,348.351105 
	C38.483612,348.673767 35.730247,347.059723 35.338230,345.815979 
	C33.810699,340.969574 32.943378,335.915100 32.028599,330.630310 
z"/>
<path fill="#FFB531" opacity="1.000000" stroke="none" 
	d="
M327.203308,265.891327 
	C280.499786,265.881226 233.796280,265.871124 186.618103,265.357971 
	C186.124344,262.880676 186.070694,260.906067 186.091995,258.932251 
	C186.199875,248.934830 184.527069,239.312271 180.180969,229.820221 
	C177.434540,216.993835 177.043594,204.489365 178.369659,191.889023 
	C178.466476,190.968872 178.007858,189.990280 177.807480,189.038849 
	C180.205276,179.670013 182.928619,170.370041 184.927887,160.916916 
	C188.293304,145.004196 183.657562,130.015610 179.561111,114.796593 
	C175.106857,98.248215 176.006943,81.437241 181.379822,64.366547 
	C190.161484,63.398857 198.560959,63.014217 206.934021,63.056252 
	C201.943466,82.776695 201.788544,102.010590 207.910873,121.086815 
	C213.653702,138.980560 213.410416,156.758148 207.643982,174.597855 
	C201.526382,193.524017 201.626495,212.540207 206.986633,231.666031 
	C208.957428,238.698181 210.688156,245.855652 211.752090,253.070450 
	C213.386826,264.155823 213.104019,263.998505 224.083694,264.091400 
	C228.800980,264.131317 230.660294,262.273529 229.907974,257.877899 
	C228.200073,247.899216 226.936600,237.784714 224.343369,228.030930 
	C220.171997,212.341385 219.202560,196.755463 224.151184,181.255112 
	C231.261856,158.982620 231.822083,136.983017 224.568649,114.541946 
	C219.333527,98.345261 219.698929,81.924614 224.803970,65.386185 
	C227.621002,56.260128 228.324173,46.481575 230.001282,36.767761 
	C230.022263,36.538342 230.053223,36.078625 230.053223,36.078625 
	C235.432816,36.194527 240.812424,36.310429 246.617401,36.956802 
	C246.016190,44.529827 245.865601,51.841316 243.801346,58.565315 
	C237.185120,80.116615 236.996582,101.420815 243.760910,122.933662 
	C248.571960,138.234406 249.055283,153.935776 244.322784,169.201721 
	C237.291580,191.882812 236.711868,214.282196 243.899261,236.954803 
	C245.447449,241.838562 246.619720,247.015121 246.853500,252.107834 
	C247.445312,265.000031 244.542389,263.887085 259.649872,264.060028 
	C263.912994,264.108826 265.536011,262.247253 264.963318,258.340576 
	C263.664703,249.482147 263.117004,240.377899 260.609711,231.860596 
	C255.377304,214.086182 254.273849,196.533875 260.063812,178.804413 
	C267.136383,157.147537 266.549988,135.670441 259.657501,114.023285 
	C254.572845,98.053810 255.405914,82.026573 259.998322,65.829681 
	C262.737122,56.170219 263.477722,45.944199 265.116608,35.972870 
	C270.745209,36.020203 276.373840,36.067535 282.479431,36.517056 
	C281.487915,44.908657 280.668213,53.085548 278.424347,60.850918 
	C272.618256,80.943771 272.032318,100.918159 278.512390,120.849953 
	C283.878723,137.356110 284.704926,153.896225 279.352936,170.425369 
	C272.190338,192.546371 271.937836,214.511353 279.058685,236.685684 
	C280.717316,241.850677 281.473755,247.389236 281.994843,252.818329 
	C283.105347,264.389465 282.928436,264.287598 294.729065,264.069519 
	C298.567566,263.998566 300.488434,262.628876 299.978638,258.773468 
	C298.805969,249.905441 298.446777,240.787613 296.042877,232.254166 
	C290.985321,214.300995 290.015747,196.617645 295.524994,178.668625 
	C302.117279,157.191055 302.048798,135.762894 295.006042,114.326698 
	C290.527496,100.695366 290.986633,86.741074 293.597382,72.836227 
	C295.893250,60.608471 298.515839,48.442062 300.994141,36.248558 
	C306.338348,36.220314 311.682556,36.192070 317.502075,36.594597 
	C316.805969,44.386932 316.447144,51.994087 314.310455,59.063919 
	C307.955139,80.092102 307.299591,100.898895 314.074310,121.932434 
	C319.316742,138.208588 319.851807,154.691330 314.495483,171.073135 
	C307.089081,193.724976 307.366486,216.196106 314.954987,238.773071 
	C316.684601,243.918915 317.679382,249.521759 317.822968,254.945755 
	C318.097992,265.333649 318.466125,263.805603 327.446808,264.047028 
	C327.613373,264.051514 327.780029,264.053558 327.849579,264.284821 
	C327.569458,264.972351 327.386383,265.431854 327.203308,265.891327 
z"/>
<path fill="#D6D6D3" opacity="1.000000" stroke="none" 
	d="
M177.498795,188.883728 
	C178.007858,189.990280 178.466476,190.968872 178.369659,191.889023 
	C177.043594,204.489365 177.434540,216.993835 179.883377,229.610718 
	C164.723648,219.421494 149.515472,219.081543 133.932388,227.990555 
	C126.539520,218.250778 118.587143,209.063446 108.432182,202.033905 
	C105.344109,199.896255 102.296379,197.700317 99.097107,195.214493 
	C107.250572,184.992783 118.128815,180.079697 130.649246,177.950684 
	C147.730545,175.046173 162.941254,179.678726 177.498795,188.883728 
z"/>
<path fill="#CF3B3A" opacity="1.000000" stroke="none" 
	d="
M206.960449,62.629578 
	C198.560959,63.014217 190.161484,63.398857 181.378754,63.966064 
	C168.186630,63.850914 155.377747,63.553196 142.030548,63.242970 
	C142.030548,54.013958 142.030548,45.460934 142.095886,36.441959 
	C165.110794,35.987755 188.060364,35.999504 211.522949,36.467415 
	C210.344131,45.492241 208.652298,54.060909 206.960449,62.629578 
z"/>
<path fill="#F7A117" opacity="1.000000" stroke="none" 
	d="
M327.946625,264.056763 
	C327.780029,264.053558 327.613373,264.051514 327.446808,264.047028 
	C318.466125,263.805603 318.097992,265.333649 317.822968,254.945755 
	C317.679382,249.521759 316.684601,243.918915 314.954987,238.773071 
	C307.366486,216.196106 307.089081,193.724976 314.495483,171.073135 
	C319.851807,154.691330 319.316742,138.208588 314.074310,121.932434 
	C307.299591,100.898895 307.955139,80.092102 314.310455,59.063919 
	C316.447144,51.994087 316.805969,44.386932 317.966858,36.583309 
	C323.730438,32.677006 329.711517,33.988937 335.908203,35.695717 
	C334.403381,46.428905 332.686096,56.838959 331.036865,67.650940 
	C330.070038,72.602516 328.578125,77.103271 328.085236,81.710899 
	C326.560852,95.960976 329.606018,109.517212 333.343842,123.313538 
	C337.970520,140.390533 337.528809,157.975983 332.437317,175.254501 
	C330.523499,181.749191 329.468231,188.496872 327.888611,195.931519 
	C325.842377,207.793716 326.967773,218.551270 330.990906,229.412384 
	C332.503571,238.442261 334.263916,247.046951 335.406219,255.732910 
	C336.501099,264.058380 336.176117,264.143097 327.946625,264.056763 
z"/>
<path fill="#B0564C" opacity="1.000000" stroke="none" 
	d="
M330.968353,229.022736 
	C326.967773,218.551270 325.842377,207.793716 327.954773,196.361115 
	C335.795135,193.136475 343.232452,189.346558 351.120850,187.631943 
	C366.537781,184.280960 382.082550,184.906570 396.484467,192.013306 
	C404.182281,195.811890 411.104706,201.181839 418.680939,206.002899 
	C413.482544,212.981995 407.980286,219.800797 401.927429,226.616882 
	C388.460510,214.890106 373.494324,210.504379 356.359283,214.229767 
	C346.330963,216.410049 338.141785,221.876312 330.968353,229.022736 
z"/>
<path fill="#F7A117" opacity="1.000000" stroke="none" 
	d="
M300.760956,35.930489 
	C298.515839,48.442062 295.893250,60.608471 293.597382,72.836227 
	C290.986633,86.741074 290.527496,100.695366 295.006042,114.326698 
	C302.048798,135.762894 302.117279,157.191055 295.524994,178.668625 
	C290.015747,196.617645 290.985321,214.300995 296.042877,232.254166 
	C298.446777,240.787613 298.805969,249.905441 299.978638,258.773468 
	C300.488434,262.628876 298.567566,263.998566 294.729065,264.069519 
	C282.928436,264.287598 283.105347,264.389465 281.994843,252.818329 
	C281.473755,247.389236 280.717316,241.850677 279.058685,236.685684 
	C271.937836,214.511353 272.190338,192.546371 279.352936,170.425369 
	C284.704926,153.896225 283.878723,137.356110 278.512390,120.849953 
	C272.032318,100.918159 272.618256,80.943771 278.424347,60.850918 
	C280.668213,53.085548 281.487915,44.908657 282.941833,36.485474 
	C288.715485,32.756275 294.611603,33.782768 300.760956,35.930489 
z"/>
<path fill="#F7A116" opacity="1.000000" stroke="none" 
	d="
M206.934021,63.056252 
	C208.652298,54.060909 210.344131,45.492241 211.987823,36.468422 
	C216.990875,35.453579 222.042053,34.893887 227.604980,34.681713 
	C228.737900,35.685215 229.359100,36.341194 229.980301,36.997177 
	C228.324173,46.481575 227.621002,56.260128 224.803970,65.386185 
	C219.698929,81.924614 219.333527,98.345261 224.568649,114.541946 
	C231.822083,136.983017 231.261856,158.982620 224.151184,181.255112 
	C219.202560,196.755463 220.171997,212.341385 224.343369,228.030930 
	C226.936600,237.784714 228.200073,247.899216 229.907974,257.877899 
	C230.660294,262.273529 228.800980,264.131317 224.083694,264.091400 
	C213.104019,263.998505 213.386826,264.155823 211.752090,253.070450 
	C210.688156,245.855652 208.957428,238.698181 206.986633,231.666031 
	C201.626495,212.540207 201.526382,193.524017 207.643982,174.597855 
	C213.410416,156.758148 213.653702,138.980560 207.910873,121.086815 
	C201.788544,102.010590 201.943466,82.776695 206.934021,63.056252 
z"/>
<path fill="#F7A117" opacity="1.000000" stroke="none" 
	d="
M264.928711,35.627480 
	C263.477722,45.944199 262.737122,56.170219 259.998322,65.829681 
	C255.405914,82.026573 254.572845,98.053810 259.657501,114.023285 
	C266.549988,135.670441 267.136383,157.147537 260.063812,178.804413 
	C254.273849,196.533875 255.377304,214.086182 260.609711,231.860596 
	C263.117004,240.377899 263.664703,249.482147 264.963318,258.340576 
	C265.536011,262.247253 263.912994,264.108826 259.649872,264.060028 
	C244.542389,263.887085 247.445312,265.000031 246.853500,252.107834 
	C246.619720,247.015121 245.447449,241.838562 243.899261,236.954803 
	C236.711868,214.282196 237.291580,191.882812 244.322784,169.201721 
	C249.055283,153.935776 248.571960,138.234406 243.760910,122.933662 
	C236.996582,101.420815 237.185120,80.116615 243.801346,58.565315 
	C245.865601,51.841316 246.016190,44.529827 247.038940,36.973373 
	C252.689270,32.341476 258.728302,34.011391 264.928711,35.627480 
z"/>
<path fill="#F7A117" opacity="1.000000" stroke="none" 
	d="
M230.001282,36.767757 
	C229.359100,36.341194 228.737900,35.685215 228.056900,34.754883 
	C228.621750,34.824650 229.246399,35.168774 229.962128,35.795761 
	C230.053223,36.078625 230.022263,36.538342 230.001282,36.767757 
z"/>
<path fill="#F98502" opacity="1.000000" stroke="none" 
	d="
M38.212624,265.755005 
	C36.984421,241.943085 53.676830,223.360962 76.099251,222.984497 
	C99.674217,222.588699 117.047096,240.402924 116.935822,265.295013 
	C90.846710,265.751526 64.769493,265.783691 38.212624,265.755005 
z"/>
<path fill="#F98501" opacity="1.000000" stroke="none" 
	d="
M133.963684,228.347076 
	C149.515472,219.081543 164.723648,219.421494 179.820923,230.048065 
	C184.527069,239.312271 186.199875,248.934830 186.091995,258.932251 
	C186.070694,260.906067 186.124344,262.880676 186.163971,265.303772 
	C173.405640,265.776489 160.626755,265.800323 147.379791,265.764587 
	C145.609741,252.322678 140.827545,240.155273 133.963684,228.347076 
z"/>
<path fill="#B0564C" opacity="1.000000" stroke="none" 
	d="
M390.848877,240.028259 
	C384.903961,247.091965 378.943359,254.142563 373.028870,261.231659 
	C371.986572,262.480988 371.137268,263.891327 370.156555,265.560730 
	C359.388458,265.884155 348.662659,265.874176 337.463684,265.391907 
	C336.985535,263.923096 337.028412,262.923706 336.968231,261.930511 
	C336.210632,249.427414 342.052307,240.160172 352.494019,234.505981 
	C363.475311,228.559570 374.900360,229.336258 385.542755,236.424133 
	C387.322266,237.609283 389.080688,238.826080 390.848877,240.028259 
z"/>
<path fill="#B9685E" opacity="1.000000" stroke="none" 
	d="
M391.111908,239.808716 
	C389.080688,238.826080 387.322266,237.609283 385.542755,236.424133 
	C374.900360,229.336258 363.475311,228.559570 352.494019,234.505981 
	C342.052307,240.160172 336.210632,249.427414 336.968231,261.930511 
	C337.028412,262.923706 336.985535,263.923096 336.996185,265.360229 
	C334.022766,265.841339 331.043701,265.881836 327.633972,265.906799 
	C327.386383,265.431854 327.569458,264.972351 327.849579,264.284821 
	C336.176117,264.143097 336.501099,264.058380 335.406219,255.732910 
	C334.263916,247.046951 332.503571,238.442261 330.990906,229.412384 
	C338.141785,221.876312 346.330963,216.410049 356.359283,214.229767 
	C373.494324,210.504379 388.460510,214.890106 401.647003,226.800415 
	C398.403107,231.187500 394.889038,235.388336 391.111908,239.808716 
z"/>
</svg>